<svg width="440" height="310" viewBox="0 0 440 310" fill="none" xmlns="http://www.w3.org/2000/svg">
<circle cx="228" cy="152" r="148.5" stroke="#F5F5F5" stroke-width="3"/>
<circle cx="228" cy="152" r="88.5" stroke="#F5F5F5" stroke-width="3"/>
<circle cx="228" cy="152" r="73.5" stroke="#F5F5F5" stroke-width="3"/>
<path d="M350.845 83.376C343.131 70.0145 333.401 57.9231 322 47.5285" stroke="#F5F5F5"/>
<path d="M344.56 82.6085C339.792 74.3496 334.247 66.5642 328 59.358" stroke="#F5F5F5"/>
<path d="M176.21 162.18C174.65 162.18 173.15 161.93 171.71 161.43C170.29 160.93 169.19 160.27 168.41 159.45L169.28 157.74C170.04 158.5 171.05 159.12 172.31 159.6C173.57 160.06 174.87 160.29 176.21 160.29C178.09 160.29 179.5 159.95 180.44 159.27C181.38 158.57 181.85 157.67 181.85 156.57C181.85 155.73 181.59 155.06 181.07 154.56C180.57 154.06 179.95 153.68 179.21 153.42C178.47 153.14 177.44 152.84 176.12 152.52C174.54 152.12 173.28 151.74 172.34 151.38C171.4 151 170.59 150.43 169.91 149.67C169.25 148.91 168.92 147.88 168.92 146.58C168.92 145.52 169.2 144.56 169.76 143.7C170.32 142.82 171.18 142.12 172.34 141.6C173.5 141.08 174.94 140.82 176.66 140.82C177.86 140.82 179.03 140.99 180.17 141.33C181.33 141.65 182.33 142.1 183.17 142.68L182.42 144.45C181.54 143.87 180.6 143.44 179.6 143.16C178.6 142.86 177.62 142.71 176.66 142.71C174.82 142.71 173.43 143.07 172.49 143.79C171.57 144.49 171.11 145.4 171.11 146.52C171.11 147.36 171.36 148.04 171.86 148.56C172.38 149.06 173.02 149.45 173.78 149.73C174.56 149.99 175.6 150.28 176.9 150.6C178.44 150.98 179.68 151.36 180.62 151.74C181.58 152.1 182.39 152.66 183.05 153.42C183.71 154.16 184.04 155.17 184.04 156.45C184.04 157.51 183.75 158.48 183.17 159.36C182.61 160.22 181.74 160.91 180.56 161.43C179.38 161.93 177.93 162.18 176.21 162.18ZM196.737 161.04C196.337 161.4 195.837 161.68 195.237 161.88C194.657 162.06 194.047 162.15 193.407 162.15C191.927 162.15 190.787 161.75 189.987 160.95C189.187 160.15 188.787 159.02 188.787 157.56V148.02H185.967V146.22H188.787V142.77H190.917V146.22H195.717V148.02H190.917V157.44C190.917 158.38 191.147 159.1 191.607 159.6C192.087 160.08 192.767 160.32 193.647 160.32C194.087 160.32 194.507 160.25 194.907 160.11C195.327 159.97 195.687 159.77 195.987 159.51L196.737 161.04ZM206.135 146.1C208.195 146.1 209.775 146.62 210.875 147.66C211.975 148.68 212.525 150.2 212.525 152.22V162H210.485V159.54C210.005 160.36 209.295 161 208.355 161.46C207.435 161.92 206.335 162.15 205.055 162.15C203.295 162.15 201.895 161.73 200.855 160.89C199.815 160.05 199.295 158.94 199.295 157.56C199.295 156.22 199.775 155.14 200.735 154.32C201.715 153.5 203.265 153.09 205.385 153.09H210.395V152.13C210.395 150.77 210.015 149.74 209.255 149.04C208.495 148.32 207.385 147.96 205.925 147.96C204.925 147.96 203.965 148.13 203.045 148.47C202.125 148.79 201.335 149.24 200.675 149.82L199.715 148.23C200.515 147.55 201.475 147.03 202.595 146.67C203.715 146.29 204.895 146.1 206.135 146.1ZM205.385 160.47C206.585 160.47 207.615 160.2 208.475 159.66C209.335 159.1 209.975 158.3 210.395 157.26V154.68H205.445C202.745 154.68 201.395 155.62 201.395 157.5C201.395 158.42 201.745 159.15 202.445 159.69C203.145 160.21 204.125 160.47 205.385 160.47ZM220.35 149.31C220.85 148.25 221.59 147.45 222.57 146.91C223.57 146.37 224.8 146.1 226.26 146.1V148.17L225.75 148.14C224.09 148.14 222.79 148.65 221.85 149.67C220.91 150.69 220.44 152.12 220.44 153.96V162H218.31V146.22H220.35V149.31ZM244.05 146.22L237.03 162H234.84L227.85 146.22H230.07L235.98 159.66L241.95 146.22H244.05ZM260.351 154.77H247.151C247.271 156.41 247.901 157.74 249.041 158.76C250.181 159.76 251.621 160.26 253.361 160.26C254.341 160.26 255.241 160.09 256.061 159.75C256.881 159.39 257.591 158.87 258.191 158.19L259.391 159.57C258.691 160.41 257.811 161.05 256.751 161.49C255.711 161.93 254.561 162.15 253.301 162.15C251.681 162.15 250.241 161.81 248.981 161.13C247.741 160.43 246.771 159.47 246.071 158.25C245.371 157.03 245.021 155.65 245.021 154.11C245.021 152.57 245.351 151.19 246.011 149.97C246.691 148.75 247.611 147.8 248.771 147.12C249.951 146.44 251.271 146.1 252.731 146.1C254.191 146.1 255.501 146.44 256.661 147.12C257.821 147.8 258.731 148.75 259.391 149.97C260.051 151.17 260.381 152.55 260.381 154.11L260.351 154.77ZM252.731 147.93C251.211 147.93 249.931 148.42 248.891 149.4C247.871 150.36 247.291 151.62 247.151 153.18H258.341C258.201 151.62 257.611 150.36 256.571 149.4C255.551 148.42 254.271 147.93 252.731 147.93ZM279.116 139.74V162H277.076V158.88C276.436 159.94 275.586 160.75 274.526 161.31C273.486 161.87 272.306 162.15 270.986 162.15C269.506 162.15 268.166 161.81 266.966 161.13C265.766 160.45 264.826 159.5 264.146 158.28C263.466 157.06 263.126 155.67 263.126 154.11C263.126 152.55 263.466 151.16 264.146 149.94C264.826 148.72 265.766 147.78 266.966 147.12C268.166 146.44 269.506 146.1 270.986 146.1C272.266 146.1 273.416 146.37 274.436 146.91C275.476 147.43 276.326 148.2 276.986 149.22V139.74H279.116ZM271.166 160.26C272.266 160.26 273.256 160.01 274.136 159.51C275.036 158.99 275.736 158.26 276.236 157.32C276.756 156.38 277.016 155.31 277.016 154.11C277.016 152.91 276.756 151.84 276.236 150.9C275.736 149.96 275.036 149.24 274.136 148.74C273.256 148.22 272.266 147.96 271.166 147.96C270.046 147.96 269.036 148.22 268.136 148.74C267.256 149.24 266.556 149.96 266.036 150.9C265.536 151.84 265.286 152.91 265.286 154.11C265.286 155.31 265.536 156.38 266.036 157.32C266.556 158.26 267.256 158.99 268.136 159.51C269.036 160.01 270.046 160.26 271.166 160.26ZM285.258 162.15C284.818 162.15 284.438 161.99 284.118 161.67C283.818 161.35 283.668 160.96 283.668 160.5C283.668 160.04 283.818 159.66 284.118 159.36C284.438 159.04 284.818 158.88 285.258 158.88C285.698 158.88 286.078 159.04 286.398 159.36C286.718 159.66 286.878 160.04 286.878 160.5C286.878 160.96 286.718 161.35 286.398 161.67C286.078 161.99 285.698 162.15 285.258 162.15Z" fill="#F5F5F5"/>
<path d="M235.699 109.859C235.699 105.565 232.245 102.071 228 102.071C223.755 102.071 220.302 105.565 220.302 109.859C220.302 114.154 223.755 117.647 228 117.647C232.245 117.647 235.699 114.154 235.699 109.859Z" fill="#F5F5F5"/>
<path d="M227.997 141.364L231.117 137.217C234.374 132.836 245 117.91 245 109.75C245.001 99.1279 238.169 91.992 228 91.992C217.831 91.992 211 99.1279 211 109.75C211 118.538 223.478 135.339 224.898 137.221L227.997 141.364ZM217.264 109.859C217.264 103.864 222.08 98.9852 228 98.9852C233.921 98.9852 238.737 103.864 238.737 109.859C238.737 115.855 233.921 120.733 228 120.733C222.08 120.733 217.264 115.856 217.264 109.859Z" fill="#780000"/>
<path d="M9.33334 7.06647L6 106.355C6 123.44 11.6667 134.087 20.8333 134.83L16.3333 285.868C16.1667 291.811 17.6667 297.505 20.5 301.715C23.3333 305.924 27 308.4 31 308.4C35 308.4 38.6667 306.172 41.5 301.715C44.3333 297.505 45.8333 291.811 45.6667 285.868L41.1667 134.83C50.3333 134.087 56 123.44 56 106.355L52.6667 7.31407" stroke="#F5F5F5" stroke-width="3" stroke-linecap="round"/>
<path d="M24.4998 9.34604V83.6271C24.4998 84.3386 24.2866 84.9717 24.0054 85.3894C23.8668 85.5953 23.7325 85.7185 23.634 85.7827C23.5864 85.8137 23.5516 85.8282 23.531 85.8348C23.5115 85.8411 23.5021 85.8412 23.4998 85.8412C23.4974 85.8412 23.488 85.8411 23.4685 85.8348C23.4479 85.8282 23.4131 85.8137 23.3655 85.7827C23.267 85.7185 23.1327 85.5953 22.9941 85.3894C22.7129 84.9717 22.4998 84.3386 22.4998 83.6271V9.34604C22.4998 8.63461 22.7129 8.00152 22.9941 7.58381C23.1327 7.37785 23.267 7.25472 23.3655 7.19051C23.4131 7.15952 23.4479 7.14501 23.4685 7.1384C23.488 7.13211 23.4974 7.13199 23.4998 7.13199C23.5021 7.13199 23.5115 7.13211 23.531 7.1384C23.5516 7.14501 23.5864 7.15952 23.634 7.19051C23.7325 7.25472 23.8668 7.37785 24.0054 7.58381C24.2866 8.00152 24.4998 8.63461 24.4998 9.34604Z" stroke="#F5F5F5" stroke-width="3"/>
<path d="M37.8336 9.34604V83.6271C37.8336 84.3386 37.6204 84.9717 37.3393 85.3894C37.2006 85.5953 37.0664 85.7185 36.9679 85.7827C36.9203 85.8137 36.8855 85.8282 36.8649 85.8348C36.8454 85.8411 36.836 85.8412 36.8336 85.8412C36.8313 85.8412 36.8219 85.8411 36.8023 85.8348C36.7818 85.8282 36.7469 85.8137 36.6994 85.7827C36.6008 85.7185 36.4666 85.5953 36.328 85.3894C36.0468 84.9717 35.8336 84.3386 35.8336 83.6271V9.34604C35.8336 8.63461 36.0468 8.00152 36.328 7.58381C36.4666 7.37785 36.6008 7.25472 36.6994 7.19051C36.7469 7.15952 36.7818 7.14501 36.8023 7.1384C36.8219 7.13211 36.8313 7.13199 36.8336 7.13199C36.836 7.13199 36.8454 7.13211 36.8649 7.1384C36.8855 7.14501 36.9203 7.15952 36.9679 7.19051C37.0664 7.25472 37.2006 7.37785 37.3393 7.58381C37.6204 8.00152 37.8336 8.63461 37.8336 9.34604Z" stroke="#F5F5F5" stroke-width="3"/>
<path d="M417.104 299.19L417.096 299.176L417.088 299.163C413.932 294.258 412.152 287.373 412.152 279.902V279.689L416.564 184.319L416.621 183.072L415.405 182.789C411.713 181.93 408.241 178.859 405.658 174.06C403.089 169.288 401.5 162.971 401.5 156V56.8781C401.5 42.3637 405.098 29.3258 410.846 19.9657C416.599 10.5976 424.352 5.11786 432.677 5.10005C432.712 5.11682 432.849 5.19459 433.037 5.50007C433.297 5.92415 433.5 6.57693 433.5 7.31708V7.81269V304.683C433.5 305.423 433.297 306.076 433.037 306.5C432.849 306.806 432.712 306.883 432.677 306.9H428.152C424.294 306.9 420.293 304.382 417.104 299.19Z" stroke="#F5F5F5" stroke-width="3"/>
</svg>
